<?xml version="1.0" encoding="UTF-8"?>
<svg id="Capa_2" data-name="Capa 2" xmlns="http://www.w3.org/2000/svg" viewBox="0 0 347.55 102.1">
  <defs>
    <style>
      .cls-1 {
        fill: #fff;
        stroke-width: 0px;
      }
    </style>
  </defs>
  <g id="Capa_1-2" data-name="Capa 1">
    <path class="cls-1" d="m242.09.12c6.36-1.29,48.03,8.58,51.49,9.4,16.59,3.39,33.17,6.77,49.76,10.16,1.4.42,3.03,1.21,3.82,2.76,0,0,1.14,2.24-.49,5.92-3.23,7.28-67.69,60.78-77.26,68.71-2.41,1.26-5.12.92-6.6-.67-1.13-1.22-1.19-2.79-1.18-3.33.89-13.74,1.78-27.47,2.67-41.21,12.94-4.68,25.89-9.36,38.83-14.04.66-.6.84-1.56.45-2.36-.38-.78-1.24-1.23-2.1-1.1-13.07,2.68-26.15,5.37-39.22,8.05-1.57-2.03-22.79-29.52-24.38-35.72-.19-.76-.69-2.7.28-4.29,0,0,1.02-1.68,3.93-2.27Z"/>
    <path class="cls-1" d="m72.23,102.1l-.31-3.99c4.34-.33,7.66-1.42,10.16-3.33l2.43,3.18c-3.13,2.4-7.15,3.75-12.29,4.15Zm-12.46-.56c-2.67-.47-4.96-1.22-6.99-2.28-1.69-.88-3.27-2.03-4.68-3.41l2.8-2.86c1.13,1.11,2.39,2.02,3.73,2.73,1.67.87,3.58,1.49,5.84,1.89l-.7,3.94Zm31.52-14.83l-3.91-.84c.38-1.75.57-3.72.57-5.84,0-1.69-.12-3.52-.36-5.43l3.97-.5c.26,2.08.39,4.07.39,5.93,0,2.4-.22,4.65-.66,6.69Zm-49.61-2.06c-.48-1.71-.79-3.47-.94-5.24-.08-.91-.11-1.84-.11-2.78,0-1.51.1-3.08.3-4.67l3.97.5c-.18,1.42-.27,2.83-.27,4.17,0,.83.03,1.65.1,2.45.13,1.52.4,3.03.81,4.5l-3.85,1.07Zm43.51-21.53c-1.13-4.24-2.35-7.86-3.73-11.09l3.68-1.58c1.46,3.41,2.74,7.21,3.92,11.64l-3.87,1.03Zm-37.41-1.81l-3.75-1.39c.37-1.01.77-2.01,1.18-3,1.14-2.76,2.43-5.51,3.85-8.18l3.53,1.88c-1.35,2.55-2.59,5.18-3.68,7.82-.39.95-.77,1.9-1.12,2.87Zm211.55-12.52c-1.11,0-2.24-.03-3.37-.08l.18-4c3.99.18,7.92.02,11.62-.47l.53,3.96c-2.89.38-5.9.58-8.96.58Zm-15.55-1.51c-3.81-.7-7.8-1.68-11.86-2.89l1.14-3.83c3.93,1.17,7.78,2.11,11.45,2.79l-.73,3.93Zm-168.02-5.23c-2.24-2.97-4.95-5.71-8.04-8.17l2.48-3.13c3.36,2.66,6.3,5.65,8.75,8.89l-3.19,2.41Zm-17.01-1.41l-3.26-2.32c2.39-3.35,5.01-6.54,7.78-9.49l2.91,2.74c-2.65,2.81-5.15,5.86-7.43,9.06Zm161.67-.19c-3.35-1.29-6.9-2.76-11.17-4.62l1.6-3.67c4.21,1.83,7.71,3.28,11.01,4.55l-1.44,3.73Zm-22.15-9.5c-3.5-1.56-7.25-3.22-10.96-4.77l1.54-3.69c3.75,1.57,7.52,3.24,11.04,4.81l-1.63,3.65Zm-140.33-3.24c-3.37-1.68-7.02-3.12-10.84-4.26l1.15-3.83c4.04,1.21,7.9,2.73,11.47,4.52l-1.79,3.58Zm16.87-4.05l-2.47-3.14c3.29-2.59,6.74-4.88,10.27-6.81l1.92,3.51c-3.33,1.82-6.6,3.99-9.71,6.44Zm101.43-1.79c-1.67-.59-3.32-1.14-4.9-1.64-2.03-.64-4.19-1.26-6.41-1.85l1.03-3.87c2.28.6,4.49,1.24,6.58,1.9,1.63.51,3.32,1.08,5.04,1.68l-1.33,3.77Zm-140.57-.96c-3.66-.56-7.5-.96-11.74-1.2l.23-3.99c4.37.25,8.34.65,12.12,1.24l-.61,3.95ZM.08,19.58l-.08-4c3.91-.08,7.95-.16,12.04-.16v4c-4.05,0-8.07.08-11.96.16Zm153.26-3.89c-4.09-.85-8.23-1.61-11.74-2.25l.71-3.94c3.53.64,7.7,1.41,11.83,2.26l-.81,3.92Zm-58.18-3.09l-1.24-3.8c3.97-1.29,8.04-2.17,12.1-2.61l.44,3.98c-3.79.42-7.59,1.24-11.3,2.44Zm34.66-1.22c-4.56-.73-8.28-1.17-11.73-1.4l.26-3.99c3.57.23,7.42.69,12.1,1.44l-.63,3.95Z"/>
  </g>
</svg>